<svg xmlns="http://www.w3.org/2000/svg">
  <symbol id="ana" viewBox="0 0 1280.000000 1280.000000">
    <g transform="translate(0.000000,1280.000000) scale(0.100000,-0.100000)">
<path d="M6085 12794 c-110 -6 -329 -25 -415 -35 -1807 -211 -3431 -1170
-4482 -2647 -598 -839 -981 -1799 -1127 -2827 -44 -308 -56 -489 -56 -885 0
-396 12 -577 56 -885 198 -1388 828 -2653 1814 -3640 981 -982 2253 -1616
3640 -1814 308 -44 489 -56 885 -56 396 0 577 12 885 56 1752 250 3307 1194
4327 2627 598 839 981 1799 1127 2827 44 308 56 489 56 885 0 396 -12 577 -56
885 -250 1752 -1194 3307 -2627 4327 -928 661 -1964 1046 -3137 1163 -141 15
-750 27 -890 19z m-584 -1481 c-10 -21 -221 -472 -469 -1003 -247 -531 -730
-1566 -1072 -2300 -1040 -2230 -1380 -2960 -1652 -3545 -144 -308 -264 -564
-268 -568 -12 -14 -242 456 -318 648 -240 610 -352 1201 -352 1855 0 654 113
1247 352 1855 245 618 610 1180 1083 1664 694 710 1568 1192 2550 1405 61 13
122 24 138 25 l27 1 -19 -37z m1934 12 c1190 -250 2261 -932 2992 -1907 442
-588 763 -1307 907 -2028 69 -343 96 -626 96 -990 0 -654 -112 -1245 -352
-1855 -76 -191 -306 -662 -318 -648 -4 4 -61 125 -127 268 -130 279 -622 1333
-1343 2880 -246 528 -728 1561 -1070 2295 -342 734 -693 1487 -780 1673 -123
262 -154 337 -141 337 9 0 71 -11 136 -25z m-978 -1438 c49 -107 377 -812
1202 -2580 209 -449 381 -818 381 -820 0 -1 -738 -2 -1640 -2 -902 0 -1640 1
-1640 2 0 2 172 371 381 820 825 1768 1153 2473 1202 2580 29 62 54 112 57
112 3 0 28 -50 57 -112z m2362 -5067 c544 -1166 986 -2116 986 -2122 0 -4 -58
-57 -129 -118 -764 -654 -1704 -1064 -2701 -1180 -363 -41 -787 -41 -1150 0
-799 93 -1568 377 -2236 826 -191 129 -297 211 -570 444 l-29 25 194 415 c186
399 863 1849 913 1958 l24 52 2280 -2 2280 -3 138 -295z" stroke="#ff0000" stroke-width="1"/>
</g>
  </symbol>

  <symbol id="st" viewBox="0 0 32 32"><path d="M32 12.408l-11.056-1.607-4.944-10.018-4.944 10.018-11.056 1.607 8 7.798-1.889 11.011 9.889-5.199 9.889 5.199-1.889-11.011 8-7.798z"></path>
  </symbol>

  <symbol id="stah" viewBox="0 0 32 32"><path d="M32 12.408l-11.056-1.607-4.944-10.018-4.944 10.018-11.056 1.607 8 7.798-1.889 11.011 9.889-5.199 9.889 5.199-1.889-11.011 8-7.798zM16 23.547l-0.029 0.015 0.029-17.837 3.492 7.075 7.807 1.134-5.65 5.507 1.334 7.776-6.983-3.671z"></path>
  </symbol>

  <symbol id="flag" viewBox="0 0 32 32"><path d="M19 1.016c-1.466-0.623-3.61-1.016-6-1.016-3.012 0-5.635 0.625-7 1.547v16c1.365-0.922 3.988-1.547 7-1.547 2.39 0 4.534 0.393 6 1.016v-16z"></path>
  </symbol>

  <symbol id="eye" viewBox="0 0 32 32"><path d="M16 6c-6.979 0-13.028 4.064-16 10 2.972 5.936 9.021 10 16 10s13.027-4.064 16-10c-2.972-5.936-9.021-10-16-10zM23.889 11.303c1.88 1.199 3.473 2.805 4.67 4.697-1.197 1.891-2.79 3.498-4.67 4.697-2.362 1.507-5.090 2.303-7.889 2.303s-5.527-0.796-7.889-2.303c-1.88-1.199-3.473-2.805-4.67-4.697 1.197-1.891 2.79-3.498 4.67-4.697 0.122-0.078 0.246-0.154 0.371-0.228-0.311 0.854-0.482 1.776-0.482 2.737 0 4.418 3.582 8 8 8s8-3.582 8-8c0-0.962-0.17-1.883-0.482-2.737 0.124 0.074 0.248 0.15 0.371 0.228v0zM16 13c0 1.657-1.343 3-3 3s-3-1.343-3-3 1.343-3 3-3 3 1.343 3 3z"></path>
  </symbol>






</svg>